<?xml version="1.0" encoding="UTF-8" standalone="no"?>
<!-- Created with Inkscape (http://www.inkscape.org/) -->

<svg
   xmlns:dc="http://purl.org/dc/elements/1.1/"
   xmlns:cc="http://creativecommons.org/ns#"
   xmlns:rdf="http://www.w3.org/1999/02/22-rdf-syntax-ns#"
   xmlns:svg="http://www.w3.org/2000/svg"
   xmlns="http://www.w3.org/2000/svg"
   xmlns:xlink="http://www.w3.org/1999/xlink"
   xmlns:sodipodi="http://sodipodi.sourceforge.net/DTD/sodipodi-0.dtd"
   xmlns:inkscape="http://www.inkscape.org/namespaces/inkscape"
   id="svg2"
   viewBox="0 0 128 128"
   sodipodi:version="0.32"
   version="1.1"
   inkscape:version="0.91+devel r"
   sodipodi:docname="ban-hammer.svg"
   width="128"
   height="128">
  <defs
     id="defs3">
    <linearGradient
       id="linearGradient11235"
       y2="-1203.7"
       xlink:href="#linearGradient11102"
       gradientUnits="userSpaceOnUse"
       x2="-1601.8"
       y1="-1227.7"
       x1="-1601.8"
       inkscape:collect="always"
       gradientTransform="matrix(0.55353418,0.31958311,-0.31958311,0.55353418,1181.1489,971.70288)" />
    <linearGradient
       id="linearGradient11102"
       inkscape:collect="always">
      <stop
         id="stop11104"
         style="stop-color:#6d2700"
         offset="0" />
      <stop
         id="stop11106"
         style="stop-color:#bd541b"
         offset="1" />
    </linearGradient>
    <linearGradient
       id="linearGradient11108"
       y2="-1216"
       xlink:href="#linearGradient11102"
       gradientUnits="userSpaceOnUse"
       x2="-1657.9"
       y1="-1216"
       x1="-1717.7"
       inkscape:collect="always" />
  </defs>
  <sodipodi:namedview
     id="base"
     bordercolor="#666666"
     inkscape:pageshadow="2"
     inkscape:window-y="0"
     fit-margin-left="0"
     pagecolor="#ffffff"
     inkscape:window-height="1171"
     inkscape:window-maximized="1"
     inkscape:zoom="0.5"
     inkscape:window-x="1276"
     showgrid="false"
     borderopacity="1.0"
     inkscape:current-layer="layer1"
     inkscape:cx="-203.21298"
     inkscape:cy="-265.26122"
     fit-margin-top="0"
     fit-margin-right="0"
     fit-margin-bottom="0"
     inkscape:window-width="1788"
     inkscape:pageopacity="0.0"
     inkscape:document-units="px" />
  <g
     id="layer1"
     inkscape:label="Layer 1"
     inkscape:groupmode="layer"
     transform="translate(-604.77,287.25)">
    <g
       id="g9262"
       transform="matrix(0.49050212,-0.84957459,0.84957459,0.49050212,536.99479,465.20199)">
      <g
         transform="matrix(0.96436756,0.6620582,-1.6703336,0.3822395,-346.21899,-575.68259)"
         id="g9245">
        <path
           inkscape:connector-curvature="0"
           style="fill:url(#linearGradient11235);stroke-width:0.63916624"
           d="m 657.84484,-236.52541 c -0.27142,-0.1573 -0.61414,-0.25834 -1.09754,-0.24878 l -0.21035,0.36434 -1.22275,-0.70596 -0.74339,1.28757 -6.3518,-3.66721 -5.27312,9.13331 6.3518,3.66722 -0.67975,1.17737 1.22276,0.70596 -0.20661,0.35785 c 0.30326,0.73402 0.79754,1.32575 2.17522,1.25587 0.37301,-0.46468 0.74546,-0.93056 1.11558,-1.40289 l 6.75146,3.89796 -0.67976,1.17737 1.22276,0.70595 -0.20661,0.35786 c 0.30327,0.73402 0.79754,1.32575 2.17522,1.25587 0.37301,-0.46468 0.74547,-0.93056 1.11559,-1.40289 l 59.95882,34.61724 -0.67975,1.17737 1.22275,0.70596 -0.20661,0.35786 c 0.30327,0.73401 0.79754,1.32575 2.17523,1.25587 1.5003,-1.86907 2.99578,-3.75163 4.33645,-6.04292 1.04293,-1.78212 1.9924,-3.81194 2.77683,-6.27765 -0.59396,-0.5216 -0.88621,-1.28121 -2.17523,-1.25586 l -0.21035,0.36433 -1.22275,-0.70596 -0.74339,1.28758 -59.88132,-34.5725 c 0.22428,-0.58405 0.44013,-1.19172 0.64347,-1.83104 -0.59395,-0.5216 -0.8862,-1.28121 -2.17522,-1.25586 l -0.21035,0.36433 -1.22276,-0.70596 -0.74338,1.28758 -6.67064,-3.8513 c 0.22428,-0.58405 0.44013,-1.19172 0.64348,-1.83104 -0.3712,-0.32605 -0.62533,-0.74504 -1.07769,-1.00709 z"
           id="rect10947" />
        <path
           d="m 656.02322,-233.37027 c -0.27151,-0.15713 -0.59899,-0.28457 -1.0373,-0.35311 l -0.13429,0.23259 -1.22276,-0.70596 -0.47464,0.82211 -6.35181,-3.66722 -3.3668,5.83149 6.3518,3.66721 -0.43399,0.7517 1.22275,0.70596 -0.13192,0.2285 c 0.39077,0.58246 0.93301,1.0911 2.17522,1.25587 0.26659,-0.28035 0.5324,-0.56153 0.79514,-0.84786 l 6.75146,3.89795 -0.434,0.7517 1.22276,0.70596 -0.13192,0.2285 c 0.39076,0.58245 0.93301,1.0911 2.17522,1.25587 0.26659,-0.28036 0.5324,-0.56153 0.79514,-0.84786 l 59.95882,34.61724 -0.434,0.7517 1.22276,0.70596 -0.13192,0.2285 c 0.39077,0.58245 0.93301,1.0911 2.17522,1.25586 1.07213,-1.12744 2.13774,-2.26544 2.99858,-3.72565 0.66969,-1.13565 1.21559,-2.46647 1.54305,-4.14068 -0.62192,-0.47316 -1.00666,-1.07258 -2.17523,-1.25586 l -0.13428,0.23259 -1.22276,-0.70596 -0.47465,0.82211 -59.88132,-34.5725 c 0.11258,-0.39059 0.2138,-0.79971 0.29867,-1.23383 -0.62191,-0.47317 -1.00665,-1.07258 -2.17522,-1.25587 l -0.13429,0.2326 -1.22275,-0.70596 -0.47465,0.82211 -6.67064,-3.8513 c 0.11259,-0.39059 0.2138,-0.7997 0.29868,-1.23383 -0.38858,-0.29593 -0.68545,-0.64092 -1.13793,-0.90275 z"
           inkscape:connector-curvature="0"
           style="fill:#652806;stroke-width:0.63916624"
           id="rect10947-6" />
        <path
           d="m 653.37068,-228.77593 c -0.27167,-0.15686 -0.5763,-0.32388 -0.94686,-0.50977 l -0.0201,0.0349 -1.22276,-0.70596 -0.0715,0.12388 -6.35181,-3.66721 -0.50727,0.87862 6.3518,3.66722 -0.0653,0.1132 1.22276,0.70596 -0.0198,0.0343 c 0.52196,0.35523 1.13617,0.73922 2.17523,1.25587 0.10699,-0.004 0.21281,-0.008 0.31445,-0.0153 l 6.75145,3.89796 -0.0654,0.11319 1.22276,0.70596 -0.0198,0.0343 c 0.52196,0.35523 1.13617,0.73922 2.17523,1.25587 0.10698,-0.004 0.21281,-0.008 0.31445,-0.0153 l 59.95882,34.61724 -0.0654,0.1132 1.22276,0.70596 -0.0198,0.0343 c 0.52195,0.35523 1.13617,0.73922 2.17522,1.25586 0.42983,-0.0149 0.85065,-0.0361 0.99169,-0.24962 0.10982,-0.16591 0.0504,-0.44822 -0.30743,-0.93555 -0.66398,-0.40032 -1.18738,-0.75956 -2.17522,-1.25586 l -0.0201,0.0349 -1.22275,-0.70596 -0.0715,0.12388 -59.88132,-34.5725 c -0.055,-0.10037 -0.1257,-0.21169 -0.21851,-0.33805 -0.66397,-0.40032 -1.18738,-0.75956 -2.17522,-1.25586 l -0.0201,0.0349 -1.22275,-0.70596 -0.0715,0.12388 -6.67065,-3.85129 c -0.055,-0.10038 -0.12569,-0.21169 -0.2185,-0.33805 -0.41478,-0.25055 -0.77563,-0.48471 -1.22836,-0.7461 z"
           inkscape:connector-curvature="0"
           style="fill:#8e3c10;stroke-width:0.63916624"
           id="rect10947-6-1" />
        <rect
           x="461.80212"
           y="-532.86462"
           width="0.56494623"
           height="13.106743"
           style="opacity:0.82399998;fill:#652806;stroke-width:0.63916624"
           id="rect11276"
           transform="rotate(30)" />
        <rect
           x="460.33203"
           y="-531.45844"
           width="0.56494623"
           height="10.39476"
           style="opacity:0.82399998;fill:#652806;stroke-width:0.63916624"
           id="rect11276-8"
           transform="rotate(30)" />
        <rect
           x="449.91367"
           y="-532.92853"
           width="0.56494623"
           height="13.106743"
           style="opacity:0.82399998;fill:#652806;stroke-width:0.63916624"
           id="rect11276-87"
           transform="rotate(30)" />
        <rect
           x="448.37964"
           y="-531.39453"
           width="0.56494623"
           height="10.39476"
           style="opacity:0.80500034;fill:#652806;stroke-width:0.63916624"
           id="rect11276-8-5"
           transform="rotate(30)" />
        <rect
           x="535.17847"
           y="-533.05634"
           width="0.56494623"
           height="13.106743"
           style="opacity:0.82399998;fill:#652806;stroke-width:0.63916624"
           id="rect11276-1"
           transform="rotate(30)" />
        <rect
           x="533.70831"
           y="-531.5863"
           width="0.56494623"
           height="10.39476"
           style="opacity:0.82399998;fill:#652806;stroke-width:0.63916624"
           id="rect11276-8-2"
           transform="rotate(30)" />
        <rect
           x="465.82892"
           y="-530.69147"
           width="59.07238"
           height="1.2590935"
           style="opacity:0.50499998;fill:#bb531a;stroke-width:0.63916624"
           id="rect11185-4"
           transform="rotate(30)" />
        <rect
           x="-460.396"
           y="-530.69147"
           width="6.5744638"
           height="1.2590935"
           transform="matrix(-0.8660254,-0.5,-0.5,0.8660254,0,0)"
           style="opacity:0.50499998;fill:#bb531a;stroke-width:0.63916624"
           id="rect11185-4-2" />
        <rect
           x="-538.05469"
           y="-532.03369"
           width="1.6030928"
           height="1.2590935"
           transform="matrix(-0.8660254,-0.5,-0.5,0.8660254,0,0)"
           style="opacity:0.50499998;fill:#bb531a;stroke-width:0.63916624"
           id="rect11185-4-2-9" />
        <rect
           x="-464.4227"
           y="-532.48108"
           width="1.6030928"
           height="1.2590935"
           transform="matrix(-0.8660254,-0.5,-0.5,0.8660254,0,0)"
           style="opacity:0.50499998;fill:#bb531a;stroke-width:0.63916624"
           id="rect11185-4-2-9-5" />
        <rect
           x="-452.53421"
           y="-532.60895"
           width="1.6030928"
           height="1.2590935"
           transform="matrix(-0.8660254,-0.5,-0.5,0.8660254,0,0)"
           style="opacity:0.50499998;fill:#bb531a;stroke-width:0.63916624"
           id="rect11185-4-2-9-1" />
        <path
           inkscape:connector-curvature="0"
           style="opacity:0.82399998;fill:#652806;stroke-width:0.63916624"
           sodipodi:nodetypes="ccccc"
           d="m 653.82453,-236.33719 1.86818,1.0786 -5.27312,9.13331 -1.86818,-1.07859 c 1.35906,-3.35733 2.75389,-6.68649 5.27312,-9.13332 z"
           id="rect11431" />
      </g>
      <g
         transform="matrix(0,0.81500844,-0.81500844,0,-322.20809,1115.3404)"
         id="g11218">
        <g
           id="g11163">
          <path
             id="rect10949"
             d="m -1689.2,-1266.3 c -8.2162,-0.048 -17.101,0.7213 -27.158,2.9238 -0.6156,3.0845 -2.6519,5.6006 0,9.9922 l 1.6719,0 0,4.7676 -2.623,0 0,65.408 2.623,0 0,4.7695 -1.6719,0 c -2.6519,4.3916 -0.6156,6.9077 0,9.9922 10.057,2.2025 18.942,2.9718 27.158,2.9238 10.564,-0.061 20.023,-1.4722 29.449,-2.9238 2.9817,-4.6087 1.9259,-7.4868 0,-9.9922 l -1.6407,0 0,-4.7695 3.125,0 0,-65.408 -3.125,0 0,-4.7676 1.6407,0 c 1.9259,-2.5054 2.9817,-5.3835 0,-9.9922 -9.4261,-1.4515 -18.886,-2.8626 -29.449,-2.9238 z"
             style="fill:url(#linearGradient11108)"
             inkscape:connector-curvature="0" />
          <path
             id="rect10949-2"
             style="opacity:0.50499998;fill:#391400"
             inkscape:connector-curvature="0"
             d="m -1682,-1266.3 c -4.9962,-0.048 -10.399,0.7213 -16.514,2.9238 -0.3744,3.0845 -1.6126,5.6006 0,9.9922 l 1.0167,0 0,4.7676 -1.5951,0 0,65.408 1.5951,0 0,4.7695 -1.0167,0 c -1.6126,4.3916 -0.3744,6.9077 0,9.9922 6.1157,2.2025 11.518,2.9718 16.514,2.9238 6.4237,-0.061 12.176,-1.4722 17.908,-2.9238 1.813,-4.6087 1.1711,-7.4868 0,-9.9922 l -0.9978,0 0,-4.7695 1.9003,0 0,-65.408 -1.9003,0 0,-4.7676 0.9978,0 c 1.1711,-2.5054 1.813,-5.3835 0,-9.9922 -5.732,-1.4515 -11.484,-2.8626 -17.908,-2.9238 z" />
          <path
             id="rect10949-2-6"
             style="opacity:0.37400004;fill:#bb531a"
             inkscape:connector-curvature="0"
             d="m -1671,-1263.8 c -0.9428,-0.046 -1.9623,0.6855 -3.1163,2.7787 -0.071,2.9315 -0.3043,5.3228 0,9.4965 l 0.1918,0 0,4.5311 -0.301,0 0,62.163 0.301,0 0,4.5329 -0.1918,0 c -0.3043,4.1737 -0.071,6.565 0,9.4965 1.154,2.0932 2.1735,2.8243 3.1163,2.7787 1.2121,-0.058 2.2975,-1.3992 3.3792,-2.7787 0.3421,-4.3801 0.2209,-7.1154 0,-9.4965 l -0.1883,0 0,-4.5329 0.3586,0 0,-62.163 -0.3586,0 0,-4.5311 0.1883,0 c 0.2209,-2.3811 0.3421,-5.1164 0,-9.4965 -1.0817,-1.3794 -2.1671,-2.7205 -3.3792,-2.7787 z" />
        </g>
        <rect
           id="rect11168"
           style="opacity:0.50499998;fill:#652806"
           height="2.5"
           width="53.125"
           y="-1253.5"
           x="-1714.6" />
        <rect
           id="rect11168-0"
           style="opacity:0.50499998;fill:#652806"
           height="2.5"
           width="53.125"
           y="-1183.3"
           x="-1714.6" />
        <rect
           id="rect11185"
           style="opacity:0.50499998;fill:#bb531a"
           height="61.458614"
           width="9.5458984"
           y="-1247.9"
           x="-1714.4" />
        <path
           id="rect11185-6"
           sodipodi:nodetypes="ccccc"
           style="opacity:0.50499998;fill:#bb531a"
           inkscape:connector-curvature="0"
           d="m -1714.7,-1263.9 9.5459,-1.375 0,8.345 -9.5459,0 z" />
        <path
           id="rect11185-6-9"
           sodipodi:nodetypes="ccccc"
           style="opacity:0.50499998;fill:#bb531a"
           inkscape:connector-curvature="0"
           d="m -1714.6,-1171.6 9.5459,1.375 0,-8.345 -9.5459,0 z" />
      </g>
    </g>
  </g>
  <metadata
     id="metadata37">
    <rdf:RDF>
      <cc:Work>
        <dc:format>image/svg+xml</dc:format>
        <dc:type
           rdf:resource="http://purl.org/dc/dcmitype/StillImage" />
        <cc:license
           rdf:resource="http://creativecommons.org/publicdomain/zero/1.0/" />
        <dc:publisher>
          <cc:Agent
             rdf:about="http://openclipart.org/">
            <dc:title>Openclipart</dc:title>
          </cc:Agent>
        </dc:publisher>
        <dc:title></dc:title>
      </cc:Work>
      <cc:License
         rdf:about="http://creativecommons.org/publicdomain/zero/1.0/">
        <cc:permits
           rdf:resource="http://creativecommons.org/ns#Reproduction" />
        <cc:permits
           rdf:resource="http://creativecommons.org/ns#Distribution" />
        <cc:permits
           rdf:resource="http://creativecommons.org/ns#DerivativeWorks" />
      </cc:License>
    </rdf:RDF>
  </metadata>
</svg>
